# xmcd CD database file
#
# Track frame offsets:
#	150
#	10112
#	23512
#	36485
#	68495
#	83660
#	99152
#	113710
#	125967
#	142237
#	153247
#	170572
#	183312
#	200322
#	211292
#
# Disc length: 3132 seconds
#
# Revision: 0
# Processed by: cddbd v1.5.2PL0 Copyright (c) Steve Scherf et al.
# Submitted via: CDex 1.70beta2
#
DISCID=c30c3a0f
DTITLE=The Brown Brothers - Yeah Yeah!
DYEAR=1997
DGENRE=Blues
TTITLE0=Miseriou
TTITLE1=Someday
TTITLE2=Slide Thing
TTITLE3=Play It Cool
TTITLE4=They Call Me Guitar Hurricane
TTITLE5=Hooker Thing
TTITLE6=She's Gone
TTITLE7=Sue's Boogaloo
TTITLE8=Wait On Time
TTITLE9=Open Up Your Eyes
TTITLE10=Running Shoes's
TTITLE11=Yeah - Yeah!
TTITLE12=Better
TTITLE13=Chitlans-Con Carn
TTITLE14=While We Cry
EXTD=YEAR: 1997
EXTT0=
EXTT1=
EXTT2=
EXTT3=
EXTT4=
EXTT5=
EXTT6=
EXTT7=
EXTT8=
EXTT9=
EXTT10=
EXTT11=
EXTT12=
EXTT13=
EXTT14=
PLAYORDER=
